<?xml version="1.0" encoding="utf-8"?>
<!-- Generator: Adobe Illustrator 23.0.5, SVG Export Plug-In . SVG Version: 6.00 Build 0)  -->
<svg version="1.1" id="Layer_1" xmlns="http://www.w3.org/2000/svg" xmlns:xlink="http://www.w3.org/1999/xlink" x="0px" y="0px"
	 width="64px" height="64px" viewBox="0 0 64 64" style="enable-background:new 0 0 64 64;" xml:space="preserve">
<style type="text/css">
	.st0{display:none;fill:#4EA4F9;}
	.st1{fill:#FFFFFF;}
</style>
<circle class="st0" cx="32" cy="35.1" r="10.8"/>
<path class="st1" d="M27.8,34.3c-0.3,0.3-0.3,0.6-0.3,0.9c0.1,1.3,1.2,2.6,2.6,2.8c2,0.4,4.2-0.7,5.3-2.5c1.4-2.3,1.3-4.6,0-6.9
	c-1.8-3.4-5.5-5.1-9.3-4.4c-4,0.8-6.8,3.1-8.3,6.9c-1.3,3.3-1,6.5,0.5,9.6c1.3,2.6,3.2,4.7,5.8,6.1c1.9,1,3.9,1.6,6,1.7
	c5.1,0.2,9.4-1.8,12.7-5.6c2.2-2.5,3.4-5.4,3.9-8.6c0.4-3.1,0-6.1-1.3-9c-1.8-4.3-4.8-7.6-9-9.7c-3.5-1.8-7.2-2.4-11.1-1.9
	C17.6,14.6,10.7,20,7.9,27.4c-1.3,3.4-1.7,7-1.3,10.6c0.6,4.7,2.4,8.8,5.5,12.5c2.7,3.3,6.1,5.7,10.1,7.2c3,1.1,6.2,1.7,9.4,1.5
	c9-0.5,16-4.5,21.2-11.8c2.1-2.9,3.4-6.2,4.1-9.7c0.8-3.8,0.8-7.6-0.1-11.3C55,18.1,50.4,11.7,43.2,7.1c-1.5-1-3.2-1.7-4.9-2.3
	c-0.6-0.2-1.1-0.5-1.3-1.1c-0.3-0.6-0.2-1.3,0.3-1.8c0.5-0.6,1.2-0.6,2-0.4c2.8,1,5.4,2.4,7.8,4.2c5.2,3.8,9.1,8.7,11.5,14.8
	c1.8,4.6,2.6,9.4,2.1,14.4c-0.8,8.1-4.2,14.9-10.4,20.3c-3.9,3.4-8.4,5.6-13.4,6.7c-3,0.7-6.1,0.8-9.2,0.5c-5-0.6-9.6-2.4-13.6-5.4
	c-4.5-3.4-7.7-7.8-9.5-13.2c-1.1-3.1-1.6-6.3-1.4-9.5C3.5,27.5,6.1,21.7,11,17c3.1-2.9,6.7-4.9,10.8-6c2.9-0.8,5.8-1,8.8-0.6
	c3.3,0.4,6.4,1.5,9.2,3.3c2.3,1.5,4.3,3.3,5.9,5.5c1.6,2.2,2.9,4.6,3.6,7.2c1.3,4.5,1.1,8.9-0.6,13.2c-1.5,3.8-4.1,6.9-7.5,9.2
	c-1.9,1.3-4,2.2-6.2,2.7c-2.5,0.6-5,0.6-7.5,0.2c-2.8-0.6-5.4-1.7-7.7-3.6c-2.3-1.9-4-4.3-5.1-7.1c-0.8-2.2-1.2-4.5-1-6.8
	c0.5-5.1,3-9.1,7.5-11.6c2.4-1.3,5-1.9,7.7-1.6c5.1,0.6,9.2,4.1,10.3,9c0.7,3.3,0,6.3-2.3,8.8c-1.8,2-4.1,2.9-6.8,2.7
	c-2.8-0.2-5.2-2.2-5.9-4.9c-0.4-1.7-0.1-3.3,1.2-4.5c1-1,2.3-1.3,3.6-1c1,0.2,1.7,0.9,1.9,1.9c0.2,0.8-0.1,1.9-1,2.3
	c-0.7,0.3-1.7,0-2.1-0.7C27.9,34.5,27.9,34.4,27.8,34.3z"/>
</svg>
