<svg width="24" height="24" viewBox="0 0 24 24" fill="none" xmlns="http://www.w3.org/2000/svg">
	<path d="M2,5.5C1.7,5.5,1.5,5.3,1.5,5V4c0-1.4,1.1-2.5,2.5-2.5h1c0.3,0,0.5,0.2,0.5,0.5S5.3,2.5,5,2.5H4C3.2,2.5,2.5,3.2,2.5,4v1
	C2.5,5.3,2.3,5.5,2,5.5z"/>
<path d="M4,22.5c-1.4,0-2.5-1.1-2.5-2.5v-1c0-0.3,0.2-0.5,0.5-0.5s0.5,0.2,0.5,0.5v1c0,0.8,0.7,1.5,1.5,1.5h1c0.3,0,0.5,0.2,0.5,0.5
	S5.3,22.5,5,22.5H4z"/>
<path d="M22,5.5c-0.3,0-0.5-0.2-0.5-0.5V4c0-0.8-0.7-1.5-1.5-1.5h-1c-0.3,0-0.5-0.2-0.5-0.5s0.2-0.5,0.5-0.5h1
	c1.4,0,2.5,1.1,2.5,2.5v1C22.5,5.3,22.3,5.5,22,5.5z"/>
<path d="M19,22.5c-0.3,0-0.5-0.2-0.5-0.5s0.2-0.5,0.5-0.5h1c0.8,0,1.5-0.7,1.5-1.5v-1c0-0.3,0.2-0.5,0.5-0.5s0.5,0.2,0.5,0.5v1
	c0,1.4-1.1,2.5-2.5,2.5H19z"/>
<path d="M12,19.2c-0.3,0-0.5-0.1-0.7-0.2l-5-2.9c-0.5-0.3-0.7-0.8-0.7-1.3V9.1c0-0.5,0.3-1,0.8-1.3l5-2.9c0.2-0.1,0.5-0.2,0.8-0.2
	s0.5,0.1,0.7,0.2l5,2.9c0.5,0.3,0.8,0.8,0.8,1.3v5.7c0,0.5-0.3,1-0.7,1.3l-5,2.9C12.5,19.2,12.3,19.2,12,19.2z M12.7,12.1l-0.2,0.4
	v4.6l0.7,0.4l4-2.3l0.3-0.4v-4.6l-0.8-0.4L12.7,12.1z M6.5,10.2v4.6l0.3,0.4l4,2.3l0.7-0.4v-4.6l-0.2-0.4l-4-2.3L6.5,10.2z M7.8,8.1
	l0,0.9l4,2.3h0.5l4-2.3l0-0.9l-4-2.3h-0.5L7.8,8.1z"/>
</svg>
