<svg version="1.1" id="Layer_1" xmlns="http://www.w3.org/2000/svg" xmlns:xlink="http://www.w3.org/1999/xlink" x="0px" y="0px"
	 viewBox="0 0 24 24" style="enable-background:new 0 0 24 24;" xml:space="preserve">
<path d="M5.6,5.6c0.3-0.3,0.7-0.3,1-0.1l0.1,0.1l5.1,5.1l5.1-5.1c0.3-0.3,0.8-0.3,1.1,0c0.3,0.3,0.3,0.7,0.1,1l-0.1,0.1l-5.1,5.1
	l5.1,5.1c0.3,0.3,0.3,0.8,0,1.1c-0.3,0.3-0.7,0.3-1,0.1l-0.1-0.1l-5.1-5.1l-5.1,5.1c-0.3,0.3-0.8,0.3-1.1,0c-0.3-0.3-0.3-0.7-0.1-1
	l0.1-0.1l5.1-5.1L5.6,6.6C5.3,6.3,5.3,5.9,5.6,5.6z"/>
</svg>
