<svg version="1.1" id="Layer_1" xmlns="http://www.w3.org/2000/svg" xmlns:xlink="http://www.w3.org/1999/xlink" x="0px" y="0px"
	 viewBox="0 0 24 24" style="enable-background:new 0 0 24 24;" xml:space="preserve">
<path d="M11.6,7.6L11.6,7.6c0.3-0.4,0.8-0.4,1-0.2l0.1,0.1l4,4c0.3,0.3,0.3,0.7,0.1,1l-0.1,0.1l-4,4c-0.3,0.3-0.8,0.3-1.1,0
	c-0.3-0.3-0.3-0.7-0.1-1l0.1-0.1l2.7-2.7l-6.7,0c-0.4,0-0.7-0.3-0.7-0.6L7,12c0-0.4,0.3-0.7,0.6-0.7l0.1,0l6.7,0l-2.7-2.7
	C11.5,8.3,11.4,7.8,11.6,7.6L11.6,7.6L11.6,7.6z"/>
</svg>
