<?xml version="1.0" encoding="utf-8"?>
<!-- Generator: Adobe Illustrator 26.5.0, SVG Export Plug-In . SVG Version: 6.00 Build 0)  -->
<svg version="1.1" id="Layer_1" xmlns="http://www.w3.org/2000/svg" xmlns:xlink="http://www.w3.org/1999/xlink" x="0px" y="0px"
	 viewBox="0 0 24 24" style="enable-background:new 0 0 24 24;" xml:space="preserve">
<path d="M13.3,4.2c-0.3-0.3-0.8-0.3-1.1,0c-0.3,0.3-0.3,0.8,0,1.1l6.3,6H3.7C3.3,11.2,3,11.6,3,12s0.3,0.8,0.8,0.8h14.7l-6.3,6
	c-0.3,0.3-0.3,0.8,0,1.1c0.3,0.3,0.8,0.3,1.1,0l7.4-7.1c0.2-0.2,0.3-0.4,0.3-0.6c0,0,0-0.1,0-0.1c0,0,0-0.1,0-0.1
	c0-0.2-0.1-0.4-0.3-0.6L13.3,4.2z"/>
</svg>
